<?xml version="1.0" standalone="no"?><!DOCTYPE svg PUBLIC "-//W3C//DTD SVG 1.1//EN" "http://www.w3.org/Graphics/SVG/1.1/DTD/svg11.dtd"><svg t="1585034720157" class="icon" viewBox="0 0 1024 1024" version="1.1" xmlns="http://www.w3.org/2000/svg" p-id="3759" xmlns:xlink="http://www.w3.org/1999/xlink" width="32" height="32"><defs><style type="text/css"></style></defs><path d="M919.82 1007H207.49c-15.89 0-28.77-12.88-28.77-28.77 0-15.89 12.88-28.77 28.77-28.77h712.33c15.89 0 28.77 12.88 28.77 28.77 0 15.89-12.88 28.77-28.77 28.77z" fill="#106F45" p-id="3760"></path><path d="M915.1 187.86c-0.85-23.04-10.62-44.37-27.51-60.06l-94.43-87.72c-16.89-15.69-38.89-23.87-61.92-23.02-23.04 0.85-44.37 10.62-60.06 27.51L141.72 614.5c-12.32 13.26-20.18 30.19-22.41 48.1-0.37 1.17-0.69 2.35-0.96 3.54L76.54 848.8c-3.58 15.65 1.5 32.16 13.26 43.08 8.44 7.84 19.49 12.04 30.74 12.04 4.42 0 8.87-0.65 13.2-1.98l179.1-55.13c1.16-0.36 2.31-0.76 3.44-1.21 17.69-3.54 34-12.62 46.32-25.88l529.47-569.94c15.71-16.89 23.88-38.88 23.03-61.92zM320.46 780.55c-5.7 6.14-12.35 8.21-16.92 8.88-3.03 0.44-5.97 1.36-8.71 2.73L137.45 840.6l36.74-160.52c1.16-2.83 1.86-5.83 2.08-8.89 0.33-4.61 1.91-11.39 7.61-17.52l443.28-477.16 131.91 131.91-438.61 472.13z m529.47-569.94l-56.81 61.15-131.91-131.91 52.14-56.12c5.23-5.63 12.34-8.89 20.02-9.17 7.69-0.28 15.01 2.44 20.64 7.67l94.43 87.72c5.63 5.23 8.89 12.34 9.17 20.02 0.27 7.68-2.45 15.01-7.68 20.64z" p-id="3761"></path></svg>