<?xml version="1.0" standalone="no"?><!DOCTYPE svg PUBLIC "-//W3C//DTD SVG 1.1//EN" "http://www.w3.org/Graphics/SVG/1.1/DTD/svg11.dtd"><svg t="1585041152143" class="icon" viewBox="0 0 1055 1024" version="1.1" xmlns="http://www.w3.org/2000/svg" p-id="5556" xmlns:xlink="http://www.w3.org/1999/xlink" width="32.96875" height="32"><defs><style type="text/css"></style></defs><path d="M1044.023138 0H582.892308L0 573.266708v448.354461z" fill="#FFB54B" p-id="5557"></path><path d="M215.701662 569.186462l116.625723-120.768985 11.137969 10.759877-57.911139 59.974892 39.447631 38.0928a134.222769 134.222769 0 0 1 5.608369-7.9872l10.744123 10.366031c-2.693908 4.064492-4.474092 6.805662-5.356307 8.255015l12.792123 12.335262-13.122954 13.595569-10.870154-10.492061a1390.513231 1390.513231 0 0 1-39.668184 49.48283l-13.674339-9.783138 10.492062-11.957169-44.063508-42.535385-11.027692 11.421538-11.153723-10.77563z m77.902769 28.167876c7.609108-8.948185 14.272985-17.218954 20.023138-24.812307l-6.380307-6.175508-22.055385 22.843077 8.412554 8.144738z m-18.495016-17.849107l22.055385-22.843077-7.467323-7.231016-22.055385 22.843077 7.467323 7.231016z m-17.53403-16.951139l22.055384-22.843077-7.199507-6.9632-22.055385 22.843077 7.199508 6.9632z m-74.767754-55.374769l87.071507-90.159261 42.015508 40.581907-87.071508 90.159262-42.015507-40.581908z m106.165169-45.434092l-6.396062-6.175508-60.935876 63.094154 6.396061 6.175508 60.935877-63.094154z m-76.847262 47.734154l60.935877-63.109908-6.128246-5.907692-60.935877 63.094153 6.128246 5.923447z m95.972431 21.440984l-11.421538-11.027692 46.221784-47.860185 10.744123 10.366031a83.968 83.968 0 0 1 13.312 35.729723c8.444062-1.654154 18.053908-4.899446 28.845293-9.720123l4.726154 18.495015a155.269908 155.269908 0 0 1-32.988554 8.869416c-0.787692 10.618092-3.497354 21.850585-8.097477 33.713231l-17.849108-3.308308c4.285046-10.413292 6.931692-20.227938 7.908431-29.428185-13.7216-0.472615-26.182892-3.812431-37.336615-10.0352l-4.064493 4.206277z m41.243569-10.870154a72.562215 72.562215 0 0 0-7.3728-24.213661l-18.116923 18.778584a61.046154 61.046154 0 0 0 25.489723 5.435077z m155.065108-326.57723c-7.309785 15.186708-17.329231 30.200123-30.089846 45.056l21.078646 20.338215 39.778462-41.196308 13.469538 12.996923-12.0832 12.508554 70.845046 68.418954-13.5168 14.020923-70.8608-68.434708-14.178461 14.682585 12.918154 12.477046c23.410215 23.835569 37.509908 47.702646 42.299077 71.601231l-20.590277-0.173292c-3.985723-18.747077-15.643569-37.966769-34.973539-57.690585l-59.013908-56.997415c15.911385-17.014154 27.726769-34.705723 35.446154-53.027446l19.471754 5.419323z m-119.618954 117.334646l22.717046-23.536246a98.114954 98.114954 0 0 0-14.493538-3.749416l11.736615-17.045661c3.576123 1.181538 9.058462 3.402831 16.415508 6.663877l23.898585-24.749293 13.075692 12.603077-60.289969 62.416739-13.059939-12.603077z m29.554216 31.161107l13.390769-13.863384a100.714338 100.714338 0 0 0-18.0224-6.380308l7.325538-17.092923c6.459077 2.552123 14.099692 6.159754 22.921847 10.822892l11.547569-11.972923a238.985846 238.985846 0 0 0-12.130462-21.976615l16.699077-8.318031c3.229538 6.459077 5.860431 12.256492 7.908431 17.376492l12.744861-13.185969 12.918154 12.477046-23.772554 24.607508 11.027693 10.6496 21.519754-22.307446 12.918153 12.477046-21.535507 22.307446 35.493415 34.264616c8.522831 8.239262 8.239262 17.061415-0.866461 26.497969l-6.83717 7.057723-16.068923-9.468062c2.914462-1.748677 5.025477-3.308308 6.333046-4.663138 2.993231-3.087754 3.150769-5.891938 0.519877-8.428308l-32.216615-31.1296-22.843077 23.662277-12.933908-12.477046 22.843077-23.662277-11.011938-10.633846-24.954092 25.836308-12.918154-12.477047z m66.68603 20.76357c10.885908 16.651815 18.652554 32.657723 23.299939 48.001969l-18.904615 4.600123a143.36 143.36 0 0 0-19.456-42.440862l15.060676-10.16123z m26.671262-34.68997c12.571569 5.309046 22.843077 10.161231 30.877538 14.572308l-6.931692 16.431262a299.071015 299.071015 0 0 0-32.122092-16.289477l8.176246-14.714093z" fill="#FFFFFF" p-id="5558"></path></svg>